<?xml version="1.0" standalone="no"?>
<!DOCTYPE svg PUBLIC "-//W3C//DTD SVG 20010904//EN"
 "http://www.w3.org/TR/2001/REC-SVG-20010904/DTD/svg10.dtd">
<svg version="1.0" xmlns="http://www.w3.org/2000/svg"
 width="1200.000000pt" height="1200.000000pt" viewBox="0 0 1200.000000 1200.000000"
 preserveAspectRatio="xMidYMid meet">
<metadata>
Created by potrace 1.16, written by Peter Selinger 2001-2019
</metadata>
<g transform="translate(0.000000,1200.000000) scale(0.100000,-0.100000)"
fill="#000000" stroke="none">
<path d="M5655 11350 c-1136 -79 -2167 -486 -3056 -1208 -187 -151 -590 -554
-741 -740 -515 -636 -864 -1329 -1056 -2097 -116 -465 -157 -806 -156 -1310 0
-319 6 -425 40 -695 50 -403 178 -896 332 -1280 347 -866 904 -1616 1642
-2211 290 -234 695 -488 1030 -646 1139 -539 2397 -664 3615 -361 785 195
1510 566 2145 1097 162 135 460 430 606 599 628 729 1048 1606 1218 2542 60
333 80 568 80 960 0 392 -20 627 -80 960 -293 1618 -1325 3018 -2794 3793
-606 319 -1276 515 -2010 587 -146 14 -658 20 -815 10z m1327 -1206 c108 -18
239 -55 334 -95 160 -66 413 -240 659 -451 77 -66 2331 -2141 2643 -2433 11
-10 -75 -106 -463 -516 -262 -277 -478 -504 -479 -504 -2 0 -491 450 -1087
1001 -1261 1164 -1269 1171 -1417 1291 -204 167 -367 271 -492 314 -86 29
-255 32 -345 5 -259 -78 -482 -325 -563 -624 -35 -131 -37 -344 -4 -466 72
-264 236 -500 597 -862 110 -110 626 -593 1148 -1074 l947 -873 -63 -66 c-34
-36 -249 -263 -476 -504 -358 -378 -416 -435 -430 -425 -8 7 -511 470 -1116
1028 -1185 1093 -1270 1171 -1445 1311 -277 221 -421 289 -621 289 -175 0
-308 -67 -475 -241 -195 -204 -295 -459 -281 -719 7 -134 34 -237 96 -365 58
-123 100 -186 223 -336 157 -193 417 -443 1426 -1373 534 -494 972 -901 972
-906 0 -7 -331 -361 -929 -993 -16 -16 -126 84 -1947 1765 -1062 981 -1932
1787 -1933 1791 -2 8 854 919 869 925 5 2 125 -105 267 -236 142 -132 259
-239 261 -237 2 1 -2 42 -9 91 -17 133 -14 438 5 577 65 459 255 832 587 1152
270 260 532 403 854 467 153 30 408 30 579 -1 66 -12 121 -19 124 -17 2 3 -1
56 -7 118 -50 511 50 974 289 1338 88 133 159 217 296 350 261 253 523 408
809 481 200 50 395 58 597 23z"/>
</g>
</svg>
