<?xml version="1.0" standalone="no"?>
<!DOCTYPE svg PUBLIC "-//W3C//DTD SVG 20010904//EN"
 "http://www.w3.org/TR/2001/REC-SVG-20010904/DTD/svg10.dtd">
<svg version="1.0" xmlns="http://www.w3.org/2000/svg"
 width="1009.000000pt" height="1024.000000pt" viewBox="0 0 1009.000000 1024.000000"
 preserveAspectRatio="xMidYMid meet">

<g transform="translate(0.000000,1024.000000) scale(0.100000,-0.100000)"
fill="#000000" stroke="none">
<path d="M3197 9816 c-169 -101 -313 -188 -319 -194 -7 -7 76 -123 285 -393
163 -211 295 -385 293 -386 -2 -2 -33 8 -69 22 -98 37 -279 83 -392 100 -127
19 -364 19 -480 0 -328 -53 -617 -207 -881 -470 -114 -113 -240 -262 -231
-271 3 -3 56 0 119 7 67 8 215 13 363 13 223 -1 266 -4 395 -27 117 -21 375
-88 388 -102 2 -1 -31 -6 -73 -10 -319 -30 -630 -169 -1176 -526 -283 -185
-347 -224 -433 -265 -82 -40 -97 -31 166 -105 101 -28 185 -53 187 -55 2 -2
-27 -36 -64 -76 -235 -253 -465 -582 -620 -888 -205 -405 -322 -799 -377
-1265 -20 -167 -17 -644 5 -830 82 -689 341 -1411 700 -1950 169 -254 575
-655 952 -940 700 -531 1488 -844 2395 -951 182 -21 680 -30 885 -15 1155 84
2257 532 3115 1267 371 318 728 751 898 1089 172 344 328 839 402 1277 52 312
64 454 64 783 0 322 -11 459 -60 725 -197 1068 -832 1937 -1889 2586 -52 32
-116 85 -185 155 -272 275 -727 469 -1280 546 -154 21 -528 24 -670 4 -93 -13
-316 -56 -346 -68 -12 -4 -14 2 -9 38 23 168 68 265 172 369 65 65 95 85 183
128 58 28 126 56 153 63 26 6 47 15 47 19 0 14 -171 160 -249 213 -175 118
-331 169 -516 169 -242 0 -453 -91 -685 -294 -114 -100 -273 -290 -345 -413
-9 -15 -57 87 -255 543 -135 309 -247 561 -250 561 -3 0 -144 -83 -313 -183z"/>
</g>
</svg>
